Coordinates
version=1
nRows=38
nColumns=12
inDegrees=yes

Units are S.I. units (second, meters, Newtons, ...)
Angles are in degrees

endheader
time	SC_y	SC_z	SC_x	AC_y	AC_z	AC_x	GH_y	GH_z	GH_yy	EL_x	PS_y
       0.0              -55.81          22.48          26.18          50.33         -16.34          19.03          159.6          76.97         -11.18          83.12          111.8
   0.02973              -55.81          22.48          26.18          50.33         -16.34          19.03          159.6          76.97          -11.2          83.12          111.8
   0.05947              -55.81          22.48          26.18          50.32         -16.34          19.02          159.5          76.97         -11.22          83.12          111.7
    0.0892               -55.8          22.48          26.18          50.32         -16.34          19.02          159.5          76.97         -11.24          83.13          111.7
    0.1189               -55.8          22.48          26.18          50.32         -16.34          19.01          159.4          76.97         -11.26          83.13          111.7
    0.1487               -55.8          22.48          26.18          50.31         -16.34           19.0          159.4          76.97         -11.28          83.14          111.7
    0.1784               -55.8          22.47          26.18          50.31         -16.33           19.0          159.3          76.97         -11.31          83.14          111.7
    0.2081               -55.8          22.47          26.18          50.31         -16.33          18.99          159.3          76.97         -11.34          83.15          111.7
    0.2379              -55.79          22.47          26.18           50.3         -16.33          18.98          159.2          76.97         -11.37          83.16          111.6
    0.2676              -55.79          22.47          26.17           50.3         -16.33          18.97          159.2          76.97          -11.4          83.16          111.6
    0.2973              -55.79          22.47          26.17          50.29         -16.33          18.96          159.1          76.97         -11.43          83.17          111.6
    0.3271              -55.78          22.46          26.17          50.29         -16.33          18.96          159.0          76.97         -11.47          83.18          111.5
    0.3568              -55.78          22.46          26.17          50.28         -16.33          18.95          159.0          76.97         -11.51          83.19          111.5
    0.3865              -55.78          22.46          26.17          50.27         -16.32          18.93          158.9          76.97         -11.55           83.2          111.5
    0.4163              -55.77          22.46          26.17          50.27         -16.32          18.92          158.8          76.97         -11.59          83.21          111.4
     0.446              -55.77          22.45          26.17          50.26         -16.32          18.91          158.7          76.97         -11.64          83.22          111.4
    0.4757              -55.76          22.45          26.16          50.25         -16.32           18.9          158.6          76.97          -11.7          83.23          111.4
    0.5055              -55.76          22.45          26.16          50.24         -16.32          18.88          158.5          76.97         -11.75          83.24          111.3
    0.5352              -55.75          22.44          26.16          50.23         -16.31          18.86          158.3          76.97         -11.82          83.25          111.3
    0.5649              -55.75          22.44          26.16          50.22         -16.31          18.85          158.2          76.97         -11.89          83.27          111.2
    0.5947              -55.74          22.44          26.15          50.21         -16.31          18.83          158.1          76.97         -11.96          83.29          111.2
    0.6244              -55.73          22.43          26.15           50.2          -16.3           18.8          157.9          76.97         -12.05           83.3          111.1
    0.6541              -55.72          22.43          26.15          50.18          -16.3          18.78          157.7          76.97         -12.14          83.32          111.0
    0.6839              -55.71          22.42          26.14          50.17          -16.3          18.75          157.5          76.96         -12.24          83.35          110.9
    0.7136               -55.7          22.41          26.14          50.15         -16.29          18.72          157.3          76.96         -12.36          83.37          110.8
    0.7433              -55.69          22.41          26.13          50.13         -16.29          18.69          157.0          76.96         -12.49           83.4          110.7
    0.7731              -55.68           22.4          26.13          50.11         -16.28          18.65          156.7          76.96         -12.63          83.43          110.6
    0.8028              -55.66          22.39          26.12          50.08         -16.27          18.61          156.4          76.96         -12.79          83.46          110.5
    0.8325              -55.65          22.38          26.12          50.05         -16.27          18.56          156.1          76.96         -12.97           83.5          110.3
    0.8623              -55.63          22.37          26.11          50.02         -16.26          18.51          155.7          76.96         -13.18          83.55          110.2
     0.892              -55.61          22.35           26.1          49.99         -16.25          18.45          155.2          76.95         -13.41           83.6          110.0
    0.9218              -55.58          22.34          26.09          49.94         -16.24          18.38          154.7          76.95         -13.69          83.66          109.8
    0.9515              -55.56          22.32          26.08           49.9         -16.22           18.3          154.1          76.95          -14.0          83.73          109.5
    0.9812              -55.52           22.3          26.07          49.84         -16.21           18.2          153.3          76.95         -14.36           83.8          109.2
     1.011              -55.48          22.27          26.05          49.77         -16.19          18.09          152.5          76.94         -14.79           83.9          108.9
     1.041              -55.44          22.25          26.03           49.7         -16.17          17.96          151.5          76.94         -15.29          84.01          108.5
      1.07              -55.39          22.21          26.01           49.6         -16.14          17.81          150.4          76.93         -15.88          84.13          108.0
       1.1              -55.32          22.17          25.99          49.49         -16.11          17.62          148.9          76.93          -16.6          84.29          107.5
